<svg height="512" viewBox="0 0 64 64" width="512" xmlns="http://www.w3.org/2000/svg"><g id="flat"><g fill="#e97424"><path d="m14.414 35-1.251-1.577 9.13-9.13 1.414 1.414z"/><path d="m31 27.758h2v5.242h-2z"/><path d="m49.809 35.224-9.516-9.517 1.414-1.414 9.293 9.293z"/></g><circle cx="32" cy="16" fill="#e33e5c" r="13"/><path d="m3 37h12v12h-12z" fill="#ffd782"/><path d="m10 40h2v2h-2z" fill="#394d5c"/><path d="m3 33h12v4h-12z" fill="#394d5c"/><path d="m3 49h12v12h-12z" fill="#2d75bb"/><path d="m15 46h-9v-4h2v2h7z" fill="#394d5c"/><path d="m26 37h12v12h-12z" fill="#ffd782"/><path d="m33 40h2v2h-2z" fill="#394d5c"/><path d="m29 40h2v2h-2z" fill="#394d5c"/><path d="m26 33h12v4h-12z" fill="#394d5c"/><path d="m27 49h10v12h-10z" fill="#2d75bb"/><path d="m11 57v-4a2 2 0 0 0 -2-2 2 2 0 0 0 -2 2v8h12v-4z" fill="#50b4f8"/><path d="m49 37h12v12h-12z" fill="#ffd782" transform="matrix(-1 0 0 -1 110 86)"/><path d="m52 40h2v2h-2z" fill="#394d5c"/><path d="m49 33h12v4h-12z" fill="#394d5c" transform="matrix(-1 0 0 -1 110 70)"/><path d="m49 49h12v12h-12z" fill="#2d75bb" transform="matrix(-1 0 0 -1 110 110)"/><path d="m58 46h-9v-2h7v-2h2z" fill="#394d5c"/><path d="m53 57v-4a2 2 0 0 1 2-2 2 2 0 0 1 2 2v8h-12v-4z" fill="#50b4f8"/><path d="m25 49h2a0 0 0 0 1 0 0v12a0 0 0 0 1 0 0h-4a0 0 0 0 1 0 0v-10a2 2 0 0 1 2-2z" fill="#50b4f8"/><path d="m37 49h4a0 0 0 0 1 0 0v12a0 0 0 0 1 0 0h-2a2 2 0 0 1 -2-2v-10a0 0 0 0 1 0 0z" fill="#50b4f8" transform="matrix(-1 0 0 -1 78 110)"/><path d="m29 44h6v2h-6z" fill="#394d5c"/><path d="m38 13a6 6 0 1 0 -10 4.463v2.537h8v-2.537a5.976 5.976 0 0 0 2-4.463z" fill="#fcf05a"/><path d="m34 25h-4l-2-2v-3h8v3z" fill="#50b4f8"/><path d="m35 14h-2-2-2v2h2v4h2v-4h2z" fill="#f9bb4b"/><path d="m3 25h9l5 1-2-5v-4h-12z" fill="#55b56a"/><path d="m6 20h2v2h-2z" fill="#fcf05a"/><path d="m10 20h2v2h-2z" fill="#fcf05a"/><path d="m61 21h-9l-5 2 2-5v-5h12z" fill="#55b56a"/><path d="m56 16h2v2h-2z" fill="#fcf05a"/><path d="m52 16h2v2h-2z" fill="#fcf05a"/></g></svg>