<svg height="511pt" viewBox="0 0 511.998 511" width="511pt" xmlns="http://www.w3.org/2000/svg"><path d="m478.453125 421.53125h-445.472656c-14.078125 0-25.488281-11.410156-25.488281-25.484375v-362.566406c0-14.078125 11.410156-25.488281 25.488281-25.488281h445.472656c14.074219 0 25.484375 11.410156 25.484375 25.488281v362.566406c0 14.074219-11.410156 25.484375-25.484375 25.484375zm0 0" fill="#ffd86e"/><path d="m503.941406 33.480469v362.566406c0 14.074219-11.410156 25.484375-25.484375 25.484375h-31.132812c14.078125 0 25.484375-11.410156 25.484375-25.484375v-362.566406c0-14.074219-11.40625-25.484375-25.484375-25.484375h31.132812c14.074219 0 25.484375 11.410156 25.484375 25.484375zm0 0" fill="#ffb509"/><path d="m503.9375 360.128906h-496.445312v35.917969c0 14.074219 11.410156 25.484375 25.488281 25.484375h445.472656c14.074219 0 25.484375-11.410156 25.484375-25.484375zm0 0" fill="#838383"/><path d="m503.941406 360.128906v35.917969c0 14.074219-11.410156 25.484375-25.484375 25.484375h-31.132812c14.078125 0 25.484375-11.410156 25.484375-25.484375v-35.917969zm0 0" fill="#5a5a5a"/><path d="m504.507812 94.933594h-496.460937v-61.457032c0-14.074218 11.410156-25.484374 25.484375-25.484374h445.492188c14.074218 0 25.484374 11.410156 25.484374 25.484374zm0 0" fill="#acacac"/><path d="m504.511719 33.472656v61.464844h-31.703125v-61.464844c0-14.066406-11.40625-25.476562-25.484375-25.476562h31.699219c14.078124 0 25.488281 11.410156 25.488281 25.476562zm0 0" fill="#9c9c9c"/><path d="m186.277344 421.53125h138.875v41.859375h-138.875zm0 0" fill="#5a5a5a"/><path d="m370.152344 504.453125h-228.875c-2.757813 0-4.996094-2.238281-4.996094-4.996094v-16.1875c0-10.976562 8.902344-19.878906 19.878906-19.878906h199.113282c10.976562 0 19.875 8.902344 19.875 19.878906v16.1875c0 2.761719-2.234376 4.996094-4.996094 4.996094zm0 0" fill="#838383"/><path d="m375.148438 483.265625v16.195313c0 2.757812-2.238282 4.996093-4.996094 4.996093h-17.632813v-21.191406c0-10.96875-8.902343-19.871094-19.871093-19.871094h22.628906c10.972656 0 19.871094 8.898438 19.871094 19.871094zm0 0" fill="#5a5a5a"/><path d="m295.476562 275.613281h162.257813v30.753907h-162.257813zm0 0" fill="#64dcfc"/><path d="m295.476562 357.273438h162.257813v30.757812h-162.257813zm0 0" fill="#64dcfc"/><path d="m438.550781 275.613281h19.183594v30.753907h-19.183594zm0 0" fill="#00d1fc"/><path d="m438.550781 357.273438h19.183594v30.757812h-19.183594zm0 0" fill="#00d1fc"/><g fill="#0396fd"><path d="m471.171875 275.613281h-189.128906c-4 0-7.246094-3.242187-7.246094-7.242187v-36.417969c0-4 3.246094-7.246094 7.246094-7.246094h189.128906c4 0 7.246094 3.246094 7.246094 7.246094v36.417969c0 4-3.246094 7.242187-7.246094 7.242187zm0 0"/><path d="m471.171875 357.273438h-189.128906c-4 0-7.246094-3.242188-7.246094-7.242188v-36.417969c0-4 3.246094-7.246093 7.246094-7.246093h189.128906c4 0 7.246094 3.246093 7.246094 7.246093v36.417969c0 4-3.246094 7.242188-7.246094 7.242188zm0 0"/><path d="m471.171875 438.933594h-189.128906c-4 0-7.246094-3.242188-7.246094-7.242188v-36.417968c0-4.003907 3.246094-7.246094 7.246094-7.246094h189.128906c4 0 7.246094 3.242187 7.246094 7.246094v36.417968c0 4-3.246094 7.242188-7.246094 7.242188zm0 0"/></g><path d="m478.414062 231.953125v36.417969c0 3.996094-3.234374 7.242187-7.242187 7.242187h-16.804687c4.007812 0 7.242187-3.246093 7.242187-7.242187v-36.417969c0-3.996094-3.234375-7.242187-7.242187-7.242187h16.804687c4.007813 0 7.242187 3.246093 7.242187 7.242187zm0 0" fill="#0077f0"/><path d="m478.414062 313.609375v36.417969c0 4.003906-3.234374 7.242187-7.242187 7.242187h-16.804687c4.007812 0 7.242187-3.238281 7.242187-7.242187v-36.417969c0-3.996094-3.234375-7.242187-7.242187-7.242187h16.804687c4.007813 0 7.242187 3.246093 7.242187 7.242187zm0 0" fill="#0077f0"/><path d="m478.414062 395.277344v36.414062c0 3.996094-3.234374 7.246094-7.242187 7.246094h-16.804687c4.007812 0 7.242187-3.25 7.242187-7.246094v-36.414062c0-4.007813-3.234375-7.246094-7.242187-7.246094h16.804687c4.007813 0 7.242187 3.238281 7.242187 7.246094zm0 0" fill="#0077f0"/><path d="m69.757812 51.25c0 8.007812-6.488281 14.5-14.496093 14.5-8.007813 0-14.496094-6.492188-14.496094-14.5 0-8.003906 6.488281-14.496094 14.496094-14.496094 8.007812 0 14.496093 6.492188 14.496093 14.496094zm0 0" fill="#ff6b81"/><path d="m125.746094 51.25c0 8.007812-6.492188 14.5-14.496094 14.5-8.007812 0-14.5-6.492188-14.5-14.5 0-8.003906 6.492188-14.496094 14.5-14.496094 8.003906 0 14.496094 6.492188 14.496094 14.496094zm0 0" fill="#ffd86e"/><path d="m181.730469 51.25c0 8.007812-6.488281 14.5-14.496094 14.5-8.003906 0-14.496094-6.492188-14.496094-14.5 0-8.003906 6.492188-14.496094 14.496094-14.496094 8.007813 0 14.496094 6.492188 14.496094 14.496094zm0 0" fill="#80e0dc"/><path d="m69.753906 51.257812c0 8-6.484375 14.484376-14.488281 14.484376-3.875 0-7.402344-1.519532-10-4.003907 7.84375-.171875 14.15625-6.585937 14.15625-14.476562 0-4.136719-1.726563-7.855469-4.496094-10.492188.113281-.011719.230469-.011719.339844-.011719 8.003906 0 14.488281 6.484376 14.488281 14.5zm0 0" fill="#ff435f"/><path d="m125.742188 51.257812c0 8-6.484376 14.484376-14.496094 14.484376-3.875 0-7.394532-1.519532-10-4.003907 7.851562-.171875 14.167968-6.585937 14.167968-14.476562 0-4.136719-1.730468-7.855469-4.496093-10.492188.109375-.011719.21875-.011719.328125-.011719 8.011718 0 14.496094 6.484376 14.496094 14.5zm0 0" fill="#ffb509"/><path d="m181.734375 51.257812c0 8-6.496094 14.484376-14.5 14.484376-3.875 0-7.390625-1.519532-10-4.003907 7.855469-.171875 14.15625-6.585937 14.15625-14.476562 0-4.136719-1.726563-7.855469-4.496094-10.492188.113281-.011719.230469-.011719.339844-.011719 8.003906 0 14.5 6.484376 14.5 14.5zm0 0" fill="#00a8b0"/><path d="m58.960938 187.046875c1.460937 1.460937 3.378906 2.195313 5.296874 2.195313 1.917969 0 3.835938-.730469 5.300782-2.195313 2.925781-2.925781 2.925781-7.671875 0-10.597656l-18.195313-18.195313 18.195313-18.191406c2.925781-2.929688 2.925781-7.671875 0-10.597656-2.925782-2.925782-7.671875-2.925782-10.597656 0l-23.492188 23.492187c-1.40625 1.40625-2.195312 3.3125-2.195312 5.296875 0 1.988282.789062 3.894532 2.195312 5.300782zm0 0"/><path d="m133.320312 158.253906-18.195312 18.195313c-2.925781 2.925781-2.925781 7.671875.003906 10.597656 1.460938 1.460937 3.378906 2.195313 5.296875 2.195313s3.835938-.734376 5.296875-2.195313l23.496094-23.496094c2.925781-2.925781 2.925781-7.671875 0-10.59375l-23.496094-23.496093c-2.925781-2.925782-7.667968-2.925782-10.59375 0-2.929687 2.929687-2.929687 7.671874 0 10.597656zm0 0"/><path d="m81.171875 188.722656c.898437.351563 1.828125.519532 2.738281.519532 2.992188 0 5.816406-1.804688 6.976563-4.753907l18.457031-46.988281c1.515625-3.851562-.382812-8.199219-4.234375-9.714844-3.847656-1.511718-8.199219.382813-9.710937 4.234375l-18.460938 46.988281c-1.511719 3.851563.382812 8.203126 4.234375 9.714844zm0 0"/><path d="m45.007812 233.203125h50.480469c4.136719 0 7.492188-3.355469 7.492188-7.496094 0-4.136719-3.355469-7.492187-7.492188-7.492187h-50.480469c-4.140624 0-7.492187 3.355468-7.492187 7.492187 0 4.140625 3.351563 7.496094 7.492187 7.496094zm0 0"/><path d="m211.753906 218.214844h-88.75c-4.136718 0-7.492187 3.355468-7.492187 7.492187 0 4.140625 3.355469 7.496094 7.492187 7.496094h88.75c4.140625 0 7.496094-3.355469 7.496094-7.496094 0-4.136719-3.355469-7.492187-7.496094-7.492187zm0 0"/><path d="m45.007812 264.808594h21.503907c4.136719 0 7.492187-3.355469 7.492187-7.496094 0-4.136719-3.355468-7.492188-7.492187-7.492188h-21.503907c-4.140624 0-7.492187 3.355469-7.492187 7.492188 0 4.140625 3.351563 7.496094 7.492187 7.496094zm0 0"/><path d="m184.339844 249.820312c-4.140625 0-7.492188 3.355469-7.492188 7.492188 0 4.140625 3.351563 7.496094 7.492188 7.496094h13.09375c4.140625 0 7.496094-3.355469 7.496094-7.496094 0-4.136719-3.355469-7.492188-7.496094-7.492188zm0 0"/><path d="m164.617188 257.3125c0-4.136719-3.355469-7.492188-7.492188-7.492188h-64.320312c-4.140626 0-7.492188 3.355469-7.492188 7.492188 0 4.140625 3.351562 7.496094 7.492188 7.496094h64.320312c4.136719 0 7.492188-3.355469 7.492188-7.496094zm0 0"/><path d="m213.703125 257.3125c0 4.140625 3.355469 7.496094 7.492187 7.496094h24.527344c4.140625 0 7.496094-3.355469 7.496094-7.496094 0-4.136719-3.355469-7.492188-7.496094-7.492188h-24.527344c-4.136718 0-7.492187 3.355469-7.492187 7.492188zm0 0"/><path d="m172.894531 164.265625h25.871094c4.140625 0 7.496094-3.355469 7.496094-7.496094 0-4.136719-3.355469-7.492187-7.496094-7.492187h-25.871094c-4.140625 0-7.496093 3.355468-7.496093 7.492187 0 4.140625 3.355468 7.496094 7.496093 7.496094zm0 0"/><path d="m227.742188 164.265625h157.855468c4.140625 0 7.492188-3.355469 7.492188-7.496094 0-4.136719-3.351563-7.492187-7.492188-7.492187h-157.855468c-4.140626 0-7.496094 3.355468-7.496094 7.492187 0 4.140625 3.355468 7.496094 7.496094 7.496094zm0 0"/><path d="m361.621094 182.246094h-63.945313c-4.136719 0-7.492187 3.355468-7.492187 7.496094 0 4.136718 3.355468 7.492187 7.492187 7.492187h63.945313c4.136718 0 7.492187-3.355469 7.492187-7.492187 0-4.140626-3.355469-7.496094-7.492187-7.496094zm0 0"/><path d="m273.699219 182.246094h-21.980469c-4.140625 0-7.492188 3.355468-7.492188 7.496094 0 4.136718 3.351563 7.492187 7.492188 7.492187h21.980469c4.140625 0 7.492187-3.355469 7.492187-7.492187 0-4.140626-3.351562-7.496094-7.492187-7.496094zm0 0"/><path d="m172.894531 197.234375h53.847657c4.136718 0 7.492187-3.355469 7.492187-7.492187 0-4.140626-3.355469-7.496094-7.492187-7.496094h-53.847657c-4.140625 0-7.496093 3.355468-7.496093 7.496094 0 4.136718 3.355468 7.492187 7.496093 7.492187zm0 0"/><path d="m157.21875 281.160156h-50.476562c-4.140626 0-7.496094 3.355469-7.496094 7.492188 0 4.136718 3.355468 7.492187 7.496094 7.492187h50.476562c4.136719 0 7.492188-3.355469 7.492188-7.492187 0-4.136719-3.355469-7.492188-7.492188-7.492188zm0 0"/><path d="m83.789062 281.160156h-38.78125c-4.140624 0-7.492187 3.355469-7.492187 7.492188 0 4.136718 3.351563 7.492187 7.492187 7.492187h38.78125c4.140626 0 7.492188-3.355469 7.492188-7.492187 0-4.136719-3.351562-7.492188-7.492188-7.492188zm0 0"/><path d="m248.722656 281.160156h-65.941406c-4.140625 0-7.492188 3.355469-7.492188 7.492188 0 4.136718 3.351563 7.492187 7.492188 7.492187h65.941406c4.136719 0 7.492188-3.355469 7.492188-7.492187 0-4.136719-3.355469-7.492188-7.492188-7.492188zm0 0"/><path d="m337.898438 242.667969h-36.058594c-4.136719 0-7.492188 3.355469-7.492188 7.492187 0 4.140625 3.355469 7.496094 7.492188 7.496094h36.058594c4.140624 0 7.492187-3.355469 7.492187-7.496094 0-4.136718-3.351563-7.492187-7.492187-7.492187zm0 0"/><path d="m400.46875 257.65625h50.902344c4.140625 0 7.496094-3.355469 7.496094-7.496094 0-4.136718-3.355469-7.492187-7.496094-7.492187h-50.902344c-4.140625 0-7.492188 3.355469-7.492188 7.492187 0 4.140625 3.355469 7.496094 7.492188 7.496094zm0 0"/><path d="m375.015625 242.667969h-11.664063c-4.140624 0-7.496093 3.355469-7.496093 7.492187 0 4.140625 3.355469 7.496094 7.496093 7.496094h11.664063c4.140625 0 7.492187-3.355469 7.492187-7.496094 0-4.136718-3.351562-7.492187-7.492187-7.492187zm0 0"/><path d="m301.839844 339.3125h36.058594c4.140624 0 7.492187-3.351562 7.492187-7.492188 0-4.136718-3.351563-7.492187-7.492187-7.492187h-36.058594c-4.136719 0-7.492188 3.355469-7.492188 7.492187 0 4.140626 3.355469 7.492188 7.492188 7.492188zm0 0"/><path d="m400.46875 339.3125h50.902344c4.140625 0 7.496094-3.351562 7.496094-7.492188 0-4.136718-3.355469-7.492187-7.496094-7.492187h-50.902344c-4.140625 0-7.492188 3.355469-7.492188 7.492187 0 4.140626 3.355469 7.492188 7.492188 7.492188zm0 0"/><path d="m363.351562 339.3125h11.664063c4.140625 0 7.496094-3.351562 7.496094-7.492188 0-4.136718-3.355469-7.492187-7.496094-7.492187h-11.664063c-4.140624 0-7.492187 3.355469-7.492187 7.492187 0 4.140626 3.351563 7.492188 7.492187 7.492188zm0 0"/><path d="m337.898438 405.988281h-36.058594c-4.136719 0-7.492188 3.355469-7.492188 7.492188s3.355469 7.492187 7.492188 7.492187h36.058594c4.140624 0 7.492187-3.355468 7.492187-7.492187s-3.351563-7.492188-7.492187-7.492188zm0 0"/><path d="m451.371094 405.988281h-50.902344c-4.140625 0-7.492188 3.355469-7.492188 7.492188s3.351563 7.492187 7.492188 7.492187h50.902344c4.140625 0 7.496094-3.355468 7.496094-7.492187s-3.355469-7.492188-7.496094-7.492188zm0 0"/><path d="m375.015625 405.988281h-11.664063c-4.140624 0-7.496093 3.355469-7.496093 7.492188s3.355469 7.492187 7.496093 7.492187h11.664063c4.140625 0 7.492187-3.355468 7.492187-7.492187s-3.351562-7.492188-7.492187-7.492188zm0 0"/><path d="m479.023438.5h-446.042969c-18.183594 0-32.980469 14.792969-32.980469 32.980469v362.566406c0 18.183594 14.796875 32.976563 32.980469 32.976563h28.199219c4.136718 0 7.492187-3.351563 7.492187-7.492188 0-4.136719-3.355469-7.492188-7.492187-7.492188h-28.199219c-9.921875 0-17.992188-8.070312-17.992188-17.992187v-28.425781h272.996094v12.914062h-5.941406c-8.128907 0-14.738281 6.609375-14.738281 14.738282v18.765624h-160.566407c-4.136719 0-7.492187 3.355469-7.492187 7.492188 0 4.140625 3.355468 7.492188 7.492187 7.492188h72.046875v26.875h-22.625c-15.09375 0-27.371094 12.28125-27.371094 27.371093v16.1875c0 6.886719 5.601563 12.488281 12.488282 12.488281h228.875c6.886718 0 12.488281-5.601562 12.488281-12.488281v-16.1875c0-15.089843-12.277344-27.371093-27.371094-27.371093h-22.625v-9.472657h138.527344c8.125 0 14.734375-6.609375 14.734375-14.738281v-3.527344c14.605469-3.390625 25.523438-16.496094 25.523438-32.113281l.566406-362.570313c.003906-18.183593-14.789063-32.976562-32.972656-32.976562zm-196.730469 349.28125v-35.917969h188.628906v35.917969zm20.675781-50.90625v-15.765625h147.273438v15.765625zm147.273438 65.890625v15.769531h-147.273438v-15.769531zm-256.472657 64.257813h73.535157v2.667968c0 8.125 6.609374 14.734375 14.738281 14.734375h35.617187v9.472657h-123.890625zm161.503907 41.863281c6.828124 0 12.382812 5.554687 12.382812 12.382812v13.691407h-223.882812v-13.691407c0-6.828125 5.558593-12.382812 12.386718-12.382812zm115.648437-39.449219h-188.628906v-35.914062h188.628906zm25.523437-35.390625c0 7.257813-4.328124 13.511719-10.535156 16.351563v-17.128907c0-8.125-6.613281-14.734375-14.738281-14.734375h-5.941406v-12.914062h31.214843zm0-43.410156h-10.78125c.152344-.847657.246094-39.023438.246094-39.023438 0-8.128906-6.613281-14.738281-14.738281-14.738281h-5.941406v-15.765625h5.941406c8.125 0 14.738281-6.613281 14.738281-14.738281v-36.417969c0-8.125-6.613281-14.738281-14.738281-14.738281h-42.324219c-4.140625 0-7.492187 3.355468-7.492187 7.496094 0 4.136718 3.351562 7.492187 7.492187 7.492187h42.074219v35.917969h-188.628906v-35.917969h99.929687c4.140625 0 7.492188-3.355469 7.492188-7.492187 0-4.140626-3.351563-7.496094-7.492188-7.496094h-100.179687c-8.128907 0-14.738281 6.613281-14.738281 14.738281v36.417969c0 8.125 6.609374 14.738281 14.738281 14.738281h5.941406v15.765625h-5.941406c-8.128907 0-14.738281 6.613281-14.738281 14.738281 0 0 .09375 38.175781.246093 39.023438h-252.5625v-250.207031h481.457031zm0-265.195313h-480.90625v-53.964844c0-9.917968 8.070313-17.988281 17.992188-17.988281h444.921875c9.921875 0 17.992187 8.070313 17.992187 17.992188zm0 0"/><path d="m55.261719 29.261719c-12.125 0-21.988281 9.863281-21.988281 21.988281s9.863281 21.992188 21.988281 21.992188 21.992187-9.867188 21.992187-21.992188-9.867187-21.988281-21.992187-21.988281zm0 28.992187c-3.859375 0-7.003907-3.140625-7.003907-7.003906 0-3.859375 3.144532-7.003906 7.003907-7.003906 3.863281 0 7.003906 3.144531 7.003906 7.003906 0 3.863281-3.140625 7.003906-7.003906 7.003906zm0 0"/><path d="m111.25 29.261719c-12.125 0-21.992188 9.863281-21.992188 21.988281s9.867188 21.992188 21.992188 21.992188 21.988281-9.867188 21.988281-21.992188-9.867187-21.988281-21.988281-21.988281zm0 28.992187c-3.863281 0-7.003906-3.140625-7.003906-7.003906 0-3.859375 3.140625-7.003906 7.003906-7.003906 3.859375 0 7.003906 3.144531 7.003906 7.003906 0 3.863281-3.144531 7.003906-7.003906 7.003906zm0 0"/><path d="m167.234375 29.261719c-12.125 0-21.988281 9.863281-21.988281 21.988281s9.863281 21.992188 21.988281 21.992188 21.992187-9.867188 21.992187-21.992188-9.867187-21.988281-21.992187-21.988281zm0 28.992187c-3.859375 0-7.003906-3.140625-7.003906-7.003906 0-3.859375 3.144531-7.003906 7.003906-7.003906 3.863281 0 7.003906 3.144531 7.003906 7.003906 0 3.863281-3.140625 7.003906-7.003906 7.003906zm0 0"/></svg>