<svg height="512" viewBox="0 0 64 64" width="512" xmlns="http://www.w3.org/2000/svg" xmlns:xlink="http://www.w3.org/1999/xlink"><linearGradient id="New_Gradient_Swatch" gradientUnits="userSpaceOnUse" x1="32" x2="32" y1="62.775" y2="1.898"><stop offset="0" stop-color="#e93e3a"/><stop offset=".35" stop-color="#ed683c"/><stop offset=".7" stop-color="#f3903f"/><stop offset="1" stop-color="#fdc70c"/></linearGradient><linearGradient id="New_Gradient_Swatch-2" x1="11" x2="11" xlink:href="#New_Gradient_Swatch" y1="62.775" y2="1.898"/><linearGradient id="New_Gradient_Swatch-3" x1="15" x2="15" xlink:href="#New_Gradient_Swatch" y1="62.775" y2="1.898"/><linearGradient id="New_Gradient_Swatch-4" x1="49" x2="49" xlink:href="#New_Gradient_Swatch" y1="62.775" y2="1.898"/><linearGradient id="New_Gradient_Swatch-5" x1="53" x2="53" xlink:href="#New_Gradient_Swatch" y1="62.775" y2="1.898"/><linearGradient id="New_Gradient_Swatch-6" x1="16" x2="16" xlink:href="#New_Gradient_Swatch" y1="62.775" y2="1.898"/><linearGradient id="New_Gradient_Swatch-7" x1="12" x2="12" xlink:href="#New_Gradient_Swatch" y1="62.775" y2="1.898"/><linearGradient id="New_Gradient_Swatch-8" x1="20" x2="20" xlink:href="#New_Gradient_Swatch" y1="62.775" y2="1.898"/><linearGradient id="New_Gradient_Swatch-9" x1="24" x2="24" xlink:href="#New_Gradient_Swatch" y1="62.775" y2="1.898"/><linearGradient id="New_Gradient_Swatch-10" x1="28" x2="28" xlink:href="#New_Gradient_Swatch" y1="62.775" y2="1.898"/><linearGradient id="New_Gradient_Swatch-12" x1="36" x2="36" xlink:href="#New_Gradient_Swatch" y1="62.775" y2="1.898"/><linearGradient id="New_Gradient_Swatch-13" x1="40" x2="40" xlink:href="#New_Gradient_Swatch" y1="62.775" y2="1.898"/><linearGradient id="New_Gradient_Swatch-14" x1="44" x2="44" xlink:href="#New_Gradient_Swatch" y1="62.775" y2="1.898"/><linearGradient id="New_Gradient_Swatch-15" x1="48" x2="48" xlink:href="#New_Gradient_Swatch" y1="62.775" y2="1.898"/><linearGradient id="New_Gradient_Swatch-16" x1="52" x2="52" xlink:href="#New_Gradient_Swatch" y1="62.775" y2="1.898"/><linearGradient id="New_Gradient_Swatch-20" x1="18" x2="18" xlink:href="#New_Gradient_Swatch" y1="62.775" y2="1.898"/><linearGradient id="New_Gradient_Swatch-21" x1="46" x2="46" xlink:href="#New_Gradient_Swatch" y1="62.775" y2="1.898"/><g id="Engineer-Software-Worker-Man-Occupation"><path d="m56 42.76v-12.29a15.988 15.988 0 1 0 -23.84-20.47h-9.24a6.847 6.847 0 0 0 -1.97-3.94 6.756 6.756 0 0 0 -2.95-1.75v-.31a2.006 2.006 0 0 0 -2-2h-2a2.006 2.006 0 0 0 -2 2v.3a6.96 6.96 0 0 0 -4.95 5.87 2.983 2.983 0 0 0 -.05 5.65v.18a3 3 0 0 0 0 6h.26a8.06 8.06 0 0 0 3.74 4.92v1.43l-4.85 2.16a7 7 0 0 0 -4.15 6.39v2.1a1 1 0 0 0 1 1h5v2.76l-5.89 11.79a1 1 0 0 0 -.11.45v4a3.009 3.009 0 0 0 3 3h54a3.009 3.009 0 0 0 3-3v-4a1 1 0 0 0 -.11-.45zm-49-22.76a1 1 0 0 1 0-2zm39-16a14 14 0 1 1 -7.14 26.03.946.946 0 0 0 -.51-.15.866.866 0 0 0 -.32.06l-4.45 1.48 1.37-4.12a1.006 1.006 0 0 0 -.14-.92 13.84 13.84 0 0 1 -2.81-8.38 14.015 14.015 0 0 1 14-14zm-21.18 8h6.36a15.9 15.9 0 0 0 1.71 15.15l-1.84 5.53a1.028 1.028 0 0 0 .24 1.03 1.007 1.007 0 0 0 .71.29 1.185 1.185 0 0 0 .32-.05l5.92-1.97a15.873 15.873 0 0 0 15.76-.15v10.17h-44v-2h17a1 1 0 0 0 1-1v-2.1a7 7 0 0 0 -4.15-6.39l-4.85-2.16v-1.43a8.06 8.06 0 0 0 3.74-4.92h.26a3 3 0 0 0 0-6v-.18a2.964 2.964 0 0 0 1.82-3.82zm-10.52 22.71a.99.99 0 0 0 1.4 0l.96 3.29h-3.32zm-.08-2.91.4-.8h.76l.4.8-.78.79zm1.54-2.8h-1.52l-1.24-.62v-.64a7.822 7.822 0 0 0 4 0v.64zm3.92 4.95a1.185 1.185 0 0 0 .32.05 1 1 0 0 0 .48-.12 1.017 1.017 0 0 0 .49-.64l.41-1.64 1.65.73a5 5 0 0 1 2.97 4.57v1.1h-7.25l-1.43-4.84zm-2.34-3.5.68-.34 1.51.66-.24.94-1.58-.53zm5.66-10.45v-2a1 1 0 0 1 0 2zm-5-13.57a5.106 5.106 0 0 1 1.54 1.04 4.913 4.913 0 0 1 1.36 2.53h-2.9zm-4-2.43h2v6h-2zm-2 2.43v3.57h-2.9a4.943 4.943 0 0 1 2.9-3.57zm-5 6.57a1 1 0 0 1 1-1h14a1 1 0 0 1 0 2h-14a1 1 0 0 1 -1-1zm2 7v-4h12v4a6 6 0 0 1 -12 0zm2.98 10.11.68.34-.37.73-1.58.53-.24-.94zm-7.98 7.89v-1.1a5 5 0 0 1 2.97-4.57l1.65-.73.41 1.64a1.017 1.017 0 0 0 .49.64 1 1 0 0 0 .48.12 1.185 1.185 0 0 0 .32-.05l2.36-.79-1.43 4.84zm5.62 6h44.76l5 10h-18.76l-1.73-3.45a.988.988 0 0 0 -.89-.55h-12a.988.988 0 0 0 -.89.55l-1.73 3.45h-18.76zm28.76 10h-12.76l1-2h10.76zm21.62 5a1 1 0 0 1 -1 1h-54a1 1 0 0 1 -1-1v-3h56z" fill="url(#New_Gradient_Swatch)"/><path d="m10 50h2v2h-2z" fill="url(#New_Gradient_Swatch-2)"/><path d="m14 50h2v2h-2z" fill="url(#New_Gradient_Swatch-3)"/><path d="m48 50h2v2h-2z" fill="url(#New_Gradient_Swatch-4)"/><path d="m52 50h2v2h-2z" fill="url(#New_Gradient_Swatch-5)"/><path d="m15 46h2v2h-2z" fill="url(#New_Gradient_Swatch-6)"/><path d="m11 46h2v2h-2z" fill="url(#New_Gradient_Swatch-7)"/><path d="m19 46h2v2h-2z" fill="url(#New_Gradient_Swatch-8)"/><path d="m23 46h2v2h-2z" fill="url(#New_Gradient_Swatch-9)"/><path d="m27 46h2v2h-2z" fill="url(#New_Gradient_Swatch-10)"/><path d="m31 46h2v2h-2z" fill="url(#New_Gradient_Swatch)"/><path d="m35 46h2v2h-2z" fill="url(#New_Gradient_Swatch-12)"/><path d="m39 46h2v2h-2z" fill="url(#New_Gradient_Swatch-13)"/><path d="m43 46h2v2h-2z" fill="url(#New_Gradient_Swatch-14)"/><path d="m47 46h2v2h-2z" fill="url(#New_Gradient_Swatch-15)"/><path d="m51 46h2v2h-2z" fill="url(#New_Gradient_Swatch-16)"/><path d="m18 50h4v2h-4z" fill="url(#New_Gradient_Swatch-8)"/><path d="m42 50h4v2h-4z" fill="url(#New_Gradient_Swatch-14)"/><path d="m11 18h2v2h-2z" fill="url(#New_Gradient_Swatch-7)"/><path d="m17 18h2v2h-2z" fill="url(#New_Gradient_Swatch-20)"/><g fill="url(#New_Gradient_Swatch-21)"><path d="m35 21h2.522a9.015 9.015 0 0 0 .363.873l-1.785 1.784a1 1 0 0 0 0 1.414l2.829 2.829a1 1 0 0 0 1.414 0l1.783-1.783a9.026 9.026 0 0 0 .874.362v2.521a1 1 0 0 0 1 1h4a1 1 0 0 0 1-1v-2.522a9.026 9.026 0 0 0 .874-.362l1.783 1.784a1 1 0 0 0 1.414 0l2.829-2.829a1 1 0 0 0 0-1.414l-1.784-1.784a9.015 9.015 0 0 0 .362-.873h2.522a1 1 0 0 0 1-1v-4a1 1 0 0 0 -1-1h-2.522a9.015 9.015 0 0 0 -.363-.873l1.785-1.784a1 1 0 0 0 0-1.414l-2.829-2.829a1 1 0 0 0 -1.414 0l-1.783 1.784a9.026 9.026 0 0 0 -.874-.362v-2.522a1 1 0 0 0 -1-1h-4a1 1 0 0 0 -1 1v2.522a9.026 9.026 0 0 0 -.874.362l-1.783-1.784a1 1 0 0 0 -1.414 0l-2.829 2.829a1 1 0 0 0 0 1.414l1.784 1.784a9.015 9.015 0 0 0 -.363.873h-2.521a1 1 0 0 0 -1 1v4a1 1 0 0 0 1 1zm1-4h2.262a1 1 0 0 0 .967-.75 7.046 7.046 0 0 1 .747-1.8 1 1 0 0 0 -.155-1.215l-1.6-1.6 1.414-1.414 1.6 1.6a1 1 0 0 0 1.217.154 6.989 6.989 0 0 1 1.8-.746 1 1 0 0 0 .75-.967v-2.262h2v2.262a1 1 0 0 0 .75.967 6.989 6.989 0 0 1 1.8.746 1 1 0 0 0 1.217-.154l1.6-1.6 1.414 1.414-1.6 1.6a1 1 0 0 0 -.155 1.215 7.046 7.046 0 0 1 .747 1.8 1 1 0 0 0 .967.75h2.258v2h-2.262a1 1 0 0 0 -.967.75 7.046 7.046 0 0 1 -.747 1.8 1 1 0 0 0 .155 1.215l1.6 1.6-1.414 1.414-1.6-1.6a1 1 0 0 0 -1.217-.154 6.989 6.989 0 0 1 -1.8.746 1 1 0 0 0 -.75.967v2.262h-1.998v-2.262a1 1 0 0 0 -.75-.967 6.989 6.989 0 0 1 -1.8-.746 1 1 0 0 0 -1.217.154l-1.6 1.6-1.414-1.414 1.6-1.6a1 1 0 0 0 .155-1.215 7.046 7.046 0 0 1 -.747-1.8 1 1 0 0 0 -.967-.75h-2.26z"/><path d="m46 23a5 5 0 1 0 -5-5 5.006 5.006 0 0 0 5 5zm0-8a3 3 0 1 1 -3 3 3 3 0 0 1 3-3z"/></g></g></svg>