<?xml version="1.0" encoding="iso-8859-1"?>
<!-- Generator: Adobe Illustrator 19.0.0, SVG Export Plug-In . SVG Version: 6.00 Build 0)  -->
<svg version="1.1" id="Capa_1" xmlns="http://www.w3.org/2000/svg" xmlns:xlink="http://www.w3.org/1999/xlink" x="0px" y="0px"
	 viewBox="0 0 512 512" style="enable-background:new 0 0 512 512;" xml:space="preserve">
<circle style="fill:#F3A225;" cx="256" cy="256" r="256"/>
<path style="fill:#DFE1E5;" d="M160.964,462.941c-0.841,6.933-4.641,14.164-10.421,18.084l-8.03,5.447c46.624,0,107.494,0,153.943,0
	l-8.03-5.447c-5.78-3.921-9.581-11.151-10.422-18.085l-4.499-44.063H165.464L160.964,462.941z"/>
<path style="fill:#D2D3D6;" d="M215.423,462.941l2.691-44.063h-52.65l-4.499,44.063c-0.841,6.933-4.641,14.164-10.421,18.084
	l-8.03,5.447c18.918,0,40.181,0,61.875,0l4.802-5.447C212.647,477.105,214.92,469.875,215.423,462.941z"/>
<path style="fill:#F7F7F7;" d="M439.704,62.583H88.291C34.205,109.521,0,178.765,0,256c0,63.286,22.977,121.197,61.027,165.878
	h378.677c15.546,0,28.265-12.719,28.265-28.265V90.848C467.969,75.302,455.25,62.583,439.704,62.583z"/>
<path style="fill:#DFE1E5;" d="M64.472,393.613c0.186-321.628-0.453-303.009,0.502-308.025C24.567,130.849,0,190.553,0,256
	c0,63.286,22.977,121.197,61.027,165.878h31.71C77.191,421.878,64.472,409.159,64.472,393.613z"/>
<path style="fill:#F7F7F7;" d="M311.964,483.472c-48.923,0-121.094,0-173.497,0c35.196,18.223,75.155,28.526,117.523,28.528
	c20.221,0,39.426,0,55.974,0c7.845,0,14.264-6.419,14.264-14.264l0,0C326.228,489.891,319.81,483.472,311.964,483.472z"/>
<path style="fill:#E2E2E2;" d="M195.801,497.736L195.801,497.736c0-7.845,6.419-14.264,14.264-14.264c-25.213,0-50.073,0-71.597,0
	c18.648,9.655,38.633,17.085,59.604,21.94C196.642,503.191,195.801,500.559,195.801,497.736z"/>
<path style="fill:#515A71;" d="M439.704,62.583L439.704,62.583H88.291C34.205,109.521,0,178.765,0,256
	c0,38.905,8.694,75.773,24.22,108.794c123.645,0,420.275,0,443.748,0V90.848C467.969,75.335,455.282,62.583,439.704,62.583z"/>
<path style="fill:#41485D;" d="M24.227,364.794c11.935,0,25.487,0,40.244,0C64.657,74.436,64.02,90.597,64.973,85.588l-0.001,0.001
	C23.068,132.542,0,192.943,0,256C0,293.72,8.271,330.903,24.227,364.794z"/>
<circle style="fill:#E2E2E2;" cx="219.49" cy="393.04" r="10.75"/>
<rect x="42.08" y="172.16" style="fill:#F7F7F7;" width="251.95" height="164.1"/>
<rect x="42.08" y="172.16" style="fill:#E2E2E2;" width="22.396" height="164.1"/>
<rect id="SVGCleanerId_0" x="86.35" y="173.06" style="fill:#6BCAF9;" width="165.36" height="163.2"/>
<g>
	<rect id="SVGCleanerId_0_1_" x="86.35" y="173.06" style="fill:#6BCAF9;" width="165.36" height="163.2"/>
</g>
<rect x="86.35" y="173.06" style="fill:#57B5E9;" width="33.24" height="163.2"/>
<path style="fill:#616B84;" d="M434.574,90.954H60.324c-13.725,16.256-25.47,34.236-34.843,53.583h413.917v-48.76
	C439.398,93.113,437.238,90.954,434.574,90.954z"/>
<path style="fill:#515A71;" d="M60.33,90.954c-13.789,16.336-25.49,34.31-34.83,53.584h38.971V90.954H60.33z"/>
<path style="fill:#FEC63B;" d="M63.886,126.036c-4.128,0-7.5-3.36-7.5-7.5c0-4.765,4.396-8.294,8.97-7.35
	c3.368,0.644,6.03,3.681,6.03,7.35C71.386,122.709,67.977,126.036,63.886,126.036z"/>
<path style="fill:#40C488;" d="M91.487,126.036c-4.096,0-7.5-3.327-7.5-7.5c0-4.739,4.378-8.298,8.97-7.35
	c3.311,0.62,6.03,3.639,6.03,7.35C98.987,122.526,95.769,126.036,91.487,126.036z"/>
<path style="fill:#7D899E;" d="M401.824,126.037h-277.09c-4.142,0-7.5-3.357-7.5-7.5s3.358-7.5,7.5-7.5h277.09
	c4.142,0,7.5,3.357,7.5,7.5S405.967,126.037,401.824,126.037z"/>
<circle style="fill:#FEC63B;" cx="154.03" cy="212.59" r="12.538"/>
<path style="fill:#F3A225;" d="M154.032,212.589c-2.319-4.017-2.152-8.778,0.006-12.529c-2.133-0.003-4.295,0.527-6.275,1.67
	c-5.997,3.462-8.052,11.13-4.589,17.128s11.131,8.052,17.127,4.589c1.98-1.143,3.52-2.75,4.584-4.599
	C160.558,218.842,156.351,216.606,154.032,212.589z"/>
<path style="fill:#43A0D8;" d="M216.126,224.007c-4.93-4.964-12.959-4.964-17.889,0l-41.401,41.692l19.414,19.551
	c1.585-0.636,3.313-0.991,5.127-0.991c3.496,0,6.683,1.299,9.115,3.44c1.842,1.621,4.653,1.621,6.495,0
	c2.432-2.14,5.619-3.439,9.115-3.439c3.51,0,6.709,1.31,9.144,3.466c1.82,1.611,4.616,1.611,6.436,0
	c2.436-2.156,5.635-3.466,9.144-3.466c3.517,0,6.721,1.315,9.159,3.478c1.81,1.606,4.598,1.606,6.408,0
	c1.514-1.344,3.325-2.359,5.322-2.936v-24.954L216.126,224.007z"/>
<path style="fill:#238CC1;" d="M178.49,284.575l48.89-49.235l-11.254-11.333c-4.93-4.964-12.959-4.964-17.889,0l-41.401,41.692
	l19.414,19.551C176.968,284.962,177.719,284.741,178.49,284.575z"/>
<path style="fill:#57B5E9;" d="M91.629,287.73c1.816,1.609,4.608,1.609,6.424,0c2.436-2.159,5.638-3.471,9.15-3.471
	c3.519,0,6.726,1.317,9.165,3.483c1.806,1.604,4.59,1.604,6.396,0c2.438-2.166,5.645-3.483,9.164-3.483
	c3.504,0,6.698,1.306,9.132,3.455c1.829,1.616,4.631,1.616,6.461,0c2.434-2.149,5.628-3.455,9.132-3.455
	c3.519,0,6.726,1.317,9.164,3.483c1.806,1.604,4.59,1.604,6.396,0c1.181-1.05,2.546-1.895,4.037-2.493l-41.47-41.762
	c-3.611-3.637-9.493-3.637-13.104,0L86.354,279.06v5.754C88.332,285.393,90.126,286.399,91.629,287.73z"/>
<path style="fill:#43A0D8;" d="M98.053,287.73c2.436-2.159,5.638-3.471,9.15-3.471c3.519,0,6.726,1.317,9.165,3.483
	c0.599,0.532,1.309,0.871,2.051,1.05l30.674-30.891l-14.312-14.413c-3.611-3.636-9.493-3.636-13.104,0L86.354,279.06v5.754
	c1.978,0.578,3.773,1.584,5.275,2.916C93.445,289.339,96.237,289.339,98.053,287.73z"/>
<path style="fill:#40C488;" d="M239.986,287.737c-2.437-2.163-5.642-3.478-9.159-3.478c-3.51,0-6.709,1.31-9.145,3.465
	c-1.82,1.611-4.616,1.611-6.436,0c-2.436-2.156-5.635-3.465-9.145-3.465c-3.496,0-6.683,1.299-9.115,3.439
	c-1.842,1.621-4.653,1.621-6.495,0c-2.432-2.14-5.62-3.439-9.115-3.439c-3.52,0-6.727,1.317-9.165,3.483
	c-1.806,1.604-4.59,1.604-6.396,0c-2.438-2.166-5.645-3.483-9.164-3.483c-3.504,0-6.698,1.305-9.132,3.455
	c-1.83,1.615-4.631,1.615-6.461,0c-2.434-2.149-5.628-3.455-9.132-3.455c-3.52,0-6.727,1.317-9.164,3.483
	c-1.806,1.604-4.591,1.604-6.396,0c-2.438-2.166-5.645-3.483-9.165-3.483c-3.513,0-6.714,1.312-9.15,3.471
	c-1.816,1.609-4.607,1.609-6.423,0c-1.503-1.332-3.298-2.338-5.275-2.916v51.451c52.527,0,112.769,0,165.362,0V284.8
	c-1.997,0.577-3.808,1.592-5.322,2.936C244.584,289.344,241.796,289.344,239.986,287.737z"/>
<path style="fill:#37B77A;" d="M119.595,336.266v-47.323c-1.157,0.007-2.317-0.392-3.227-1.201
	c-2.438-2.166-5.645-3.483-9.165-3.483c-3.513,0-6.714,1.312-9.15,3.471c-1.816,1.609-4.607,1.609-6.423,0
	c-1.503-1.332-3.298-2.338-5.275-2.916v51.451L119.595,336.266L119.595,336.266z"/>
<path style="fill:#41485D;" d="M13.743,173.065h425.655v-28.528H25.481C21.017,153.751,17.093,163.275,13.743,173.065z"/>
<path style="fill:#343B4C;" d="M25.5,144.537c-4.411,9.106-8.318,18.478-11.752,28.528h50.723v-28.528H25.5z"/>
<path style="fill:#FEC63B;" d="M45.091,173.065v-28.528h-19.61c-4.464,9.214-8.388,18.738-11.739,28.528H45.091z"/>
<path style="fill:#E2E2E2;" d="M428.343,336.266H291.021V173.065h148.376v152.147C439.398,331.317,434.448,336.266,428.343,336.266z
	"/>
<rect x="291.02" y="173.06" style="fill:#D2D3D6;" width="45.682" height="163.2"/>
<rect x="291.02" y="173.06" style="fill:#6BCAF9;" width="148.38" height="28.528"/>
<rect x="291.02" y="173.06" style="fill:#57B5E9;" width="45.682" height="28.528"/>
<path style="fill:#D2D3D6;" d="M12.853,336.266c7.148,0,18.225,0,32.237,0V173.065H13.743C4.84,199.076,0,226.972,0,256
	C0,284.039,4.523,311.018,12.853,336.266z"/>
<path style="fill:#6BCAF9;" d="M406.209,241.273h-82c-4.142,0-7.5-3.357-7.5-7.5s3.358-7.5,7.5-7.5h82c4.142,0,7.5,3.357,7.5,7.5
	S410.352,241.273,406.209,241.273z"/>
<path style="fill:#57B5E9;" d="M393.715,247.773c-4.142,0-7.5-3.357-7.5-7.5v-14c0-4.143,3.358-7.5,7.5-7.5s7.5,3.357,7.5,7.5v14
	C401.215,244.416,397.857,247.773,393.715,247.773z"/>
<path style="fill:#6BCAF9;" d="M406.209,275.613h-82c-4.142,0-7.5-3.357-7.5-7.5s3.358-7.5,7.5-7.5h82c4.142,0,7.5,3.357,7.5,7.5
	S410.352,275.613,406.209,275.613z"/>
<path style="fill:#57B5E9;" d="M336.704,282.113c-4.142,0-7.5-3.357-7.5-7.5v-14c0-4.143,3.358-7.5,7.5-7.5s7.5,3.357,7.5,7.5v14
	C344.204,278.756,340.846,282.113,336.704,282.113z"/>
<path style="fill:#6BCAF9;" d="M406.209,309.452h-82c-4.142,0-7.5-3.357-7.5-7.5s3.358-7.5,7.5-7.5h82c4.142,0,7.5,3.357,7.5,7.5
	S410.352,309.452,406.209,309.452z"/>
<path style="fill:#57B5E9;" d="M365.209,315.952c-4.142,0-7.5-3.357-7.5-7.5v-14c0-4.143,3.358-7.5,7.5-7.5s7.5,3.357,7.5,7.5v14
	C372.709,312.595,369.352,315.952,365.209,315.952z"/>
<path style="fill:#D2D3D6;" d="M45.09,254.613v-81.548H13.743C4.983,198.66,0.17,226.084,0.018,254.613H45.09z"/>
<g>
	<path style="fill:#E2E2E2;" d="M45.09,216.054v-42.989H13.743c-4.735,13.834-8.317,28.201-10.634,42.989H45.09z"/>
	<path style="fill:#E2E2E2;" d="M3.392,297.655H45.09v-42.989H0.017C0.015,255.111,0,255.554,0,256
		C0,270.186,1.173,284.096,3.392,297.655z"/>
</g>
<path style="fill:#FEC63B;" d="M224.001,307.822c-13.743,0-13.743,12.118-27.486,12.118c-13.744,0-13.744-12.118-27.487-12.118
	s-13.743,12.118-27.486,12.118s-13.743-12.118-27.485-12.118c-13.741,0-13.741,12.118-27.482,12.118
	c-0.076,0-0.145-0.007-0.219-0.007v16.333c52.527,0,112.769,0,165.362,0v-16.333c-0.077,0.001-0.147,0.007-0.225,0.007
	C237.746,319.94,237.746,307.822,224.001,307.822z"/>
<path style="fill:#F3A225;" d="M119.595,336.266v-27.649c-1.581-0.499-3.392-0.795-5.539-0.795
	c-13.741,0-13.741,12.118-27.482,12.118c-0.076,0-0.145-0.007-0.219-0.007v16.333L119.595,336.266L119.595,336.266z"/>
<g>
</g>
<g>
</g>
<g>
</g>
<g>
</g>
<g>
</g>
<g>
</g>
<g>
</g>
<g>
</g>
<g>
</g>
<g>
</g>
<g>
</g>
<g>
</g>
<g>
</g>
<g>
</g>
<g>
</g>
</svg>
