<?xml version="1.0" encoding="iso-8859-1"?>
<!-- Generator: Adobe Illustrator 19.0.0, SVG Export Plug-In . SVG Version: 6.00 Build 0)  -->
<svg version="1.1" id="Capa_1" xmlns="http://www.w3.org/2000/svg" xmlns:xlink="http://www.w3.org/1999/xlink" x="0px" y="0px"
	 viewBox="0 0 512.008 512.008" style="enable-background:new 0 0 512.008 512.008;" xml:space="preserve">
<circle style="fill:#F1592F;" cx="256.004" cy="256" r="256"/>
<polygon style="fill:#F5EA07;" points="336.536,110.152 247.236,110.152 247.236,51.212 336.536,51.212 323.564,80.68 "/>
<rect x="239.66" y="27.248" style="fill:#4D5BA5;" width="11.888" height="218.832"/>
<circle style="fill:#70B1E1;" cx="245.604" cy="29.264" r="14.06"/>
<path style="fill:#4D535F;" d="M416.444,455.488c-34.64,27.92-76.68,46.96-122.76,53.76c-12.28,1.84-24.88,2.76-37.68,2.76
	c-14.52,0-28.76-1.2-42.6-3.56c-50.08-8.36-95.24-31.28-130.96-64.28l37.2-56.24l8.28-12.52l46.72-70.72l0.16-0.24l70.76-106.92
	l0.16-0.28l80.32,121.52l42.96,65L416.444,455.488z"/>
<polygon style="fill:#D2D2D4;" points="325.224,318.08 320.236,325.824 311.42,314.972 302.608,325.824 293.796,314.972 
	285.064,297.056 276.252,286.208 267.44,304.236 258.628,293.384 249.896,304.236 241.08,293.384 232.268,297.056 223.456,293.384 
	214.644,304.236 205.912,286.208 197.096,297.056 188.284,300.62 179.472,311.412 173.984,303.784 244.904,196.576 "/>
<path style="fill:#656D7A;" d="M213.404,508.448c-50.08-8.36-95.24-31.28-130.96-64.28c-12.08-11.12-23.08-23.44-32.88-36.72
	l7.12-11.08l42.36-65.84l28.88,44.88l19.12,29.76L213.404,508.448z"/>
<polygon style="fill:#E8E7E8;" points="147.028,405.168 144.048,409.924 138.784,403.256 133.52,409.924 128.256,403.256 
	123.044,392.252 117.78,385.584 112.516,396.66 107.252,389.996 102.04,396.66 96.776,389.996 91.512,392.252 86.248,389.996 
	80.984,396.66 75.772,385.584 70.508,392.252 65.244,394.44 59.98,401.072 56.704,396.384 99.06,330.516 "/>
<path style="fill:#656D7A;" d="M478.524,382.648c-16,28.04-37.12,52.76-62.08,72.84c-34.64,27.92-76.68,46.96-122.76,53.76
	l75.32-125.48l8.2-13.64l0.16-0.28l46.56-77.44l0.2-0.36l52.92,88.16L478.524,382.648z"/>
<polygon style="fill:#E8E7E8;" points="476.232,379.536 472.94,385.152 467.132,377.28 461.324,385.152 455.516,377.28 
	449.76,364.276 443.952,356.4 438.144,369.484 432.336,361.612 426.58,369.484 420.772,361.612 414.964,364.276 409.156,361.612 
	403.348,369.484 397.592,356.4 391.784,364.276 385.976,366.86 380.168,374.696 376.548,369.156 423.292,291.352 "/>
<g>
</g>
<g>
</g>
<g>
</g>
<g>
</g>
<g>
</g>
<g>
</g>
<g>
</g>
<g>
</g>
<g>
</g>
<g>
</g>
<g>
</g>
<g>
</g>
<g>
</g>
<g>
</g>
<g>
</g>
</svg>
