<svg id="Layer_3" enable-background="new 0 0 64 64" height="512" viewBox="0 0 64 64" width="512" xmlns="http://www.w3.org/2000/svg"><g><path d="m28 20v-3l7-7-3-3-5 5h-6l-5-5-3 3 7 7v3z" fill="#4472b0"/><path d="m20 20h8v12h-8z" fill="#a0a8b2"/><path d="m2 52 10-14h5l3-6h8l7 20 7 2 7 8h-47z" fill="#c18e5c"/><path d="m59 45-6-3-7-20h-11l-4.078 18.349 4.078 11.651 7 2 7 8h13v-7z" fill="#cda57d"/><path d="m41 14h12l-4-4 4-4h-12z" fill="#f2c351"/><g><path d="m23 23h2v9h-2z" fill="#c1c8d1"/></g><path d="m24 10c-1.657 0-3-1.343-3-3v-2c0-1.657 1.343-3 3-3 1.657 0 3 1.343 3 3v2c0 1.657-1.343 3-3 3z" fill="#f9d296"/><g><path d="m18 41v-3h-2v2.586l-2.707 2.707 1.414 1.414 1.293-1.293v4.172l-3.414 3.414h-2.586v2h3c.265 0 .52-.105.707-.293l3.293-3.293 2.293 2.293 1.414-1.414-2.707-2.707z" fill="#976947"/><path d="m48.8 30-.7-2h-3.1c-.265 0-.52.105-.707.293l-3.707 3.707h-2.586v2h3c.265 0 .52-.105.707-.293l1.293-1.293 2.293 2.293 1.414-1.414-2.293-2.293 1-1z" fill="#976947"/><g fill="#c1c8d1"><path d="m9.5 15.379h2v4.243h-2z" transform="matrix(.707 -.707 .707 .707 -9.299 12.55)"/><path d="m8.379 25.5h4.243v2h-4.243z" transform="matrix(.707 -.707 .707 .707 -15.663 15.186)"/><path d="m7 21h4v2h-4z"/></g></g><g><path d="m40 6h2v16h-2z" fill="#a0a8b2"/></g></g></svg>