<svg id="Capa_1" enable-background="new 0 0 501 501" height="512" viewBox="0 0 501 501" width="512" xmlns="http://www.w3.org/2000/svg"><path d="m490 256c0 135.31-109.69 245-245 245s-245-109.69-245-245 109.69-245 245-245 245 109.69 245 245z" fill="#0ed1b2"/><path d="m193.098 94.14-12.969 5.118c-2.994 1.182-5.365 3.552-6.546 6.546l-5.118 12.969c-.645 1.635-2.959 1.635-3.605 0l-5.118-12.969c-1.182-2.994-3.552-5.365-6.546-6.546l-12.969-5.118c-1.635-.645-1.635-2.959 0-3.605l12.969-5.118c2.994-1.182 5.365-3.552 6.546-6.546l5.118-12.969c.645-1.635 2.959-1.635 3.605 0l5.118 12.969c1.182 2.994 3.552 5.365 6.546 6.546l12.969 5.118c1.635.646 1.635 2.96 0 3.605zm240 131.72-12.969-5.118c-2.994-1.182-5.365-3.552-6.546-6.546l-5.118-12.969c-.645-1.635-2.959-1.635-3.605 0l-5.118 12.969c-1.182 2.994-3.552 5.365-6.546 6.546l-12.969 5.118c-1.635.645-1.635 2.959 0 3.605l12.969 5.118c2.994 1.182 5.365 3.552 6.546 6.546l5.118 12.969c.645 1.635 2.959 1.635 3.605 0l5.118-12.969c1.182-2.994 3.552-5.365 6.546-6.546l12.969-5.118c1.635-.646 1.635-2.96 0-3.605z" fill="#89e9d9"/><path d="m250 270h-10c-5.523 0-10-4.477-10-10v-140c0-5.523 4.477-10 10-10h10c5.523 0 10 4.477 10 10v140c0 5.523-4.477 10-10 10z" fill="#463b83"/><path d="m41.425 392.363c47.606-71.401 119.233-125.898 203.575-152.363 84.342 26.465 155.969 80.962 203.575 152.363-43.974 65.518-118.739 108.637-203.575 108.637s-159.601-43.119-203.575-108.637z" fill="#6e61b5"/><path d="m285 255.048c-86.229 38.053-155.521 106.638-193.672 191.777-19.244-15.517-36.092-33.884-49.903-54.462 47.606-71.401 119.233-125.898 203.575-152.363 13.684 4.294 27.034 9.326 40 15.048z" fill="#463b83"/><path d="m490.982 150h-246.234v-140h246.235c8.134 0 12.865 9.194 8.137 15.812l-38.706 54.188 38.705 54.188c4.728 6.618-.003 15.812-8.137 15.812z" fill="#fc5e93"/><path d="m490.982 150h-230.982c0 5.523-4.477 10-10 10h-10c-5.523 0-10-4.477-10-10v-140c0-5.523 4.477-10 10-10h10c5.523 0 10 4.477 10 10h19c0 55.229 44.771 100 100 100h102.843l17.277 24.188c4.727 6.618-.004 15.812-8.138 15.812z" fill="#fd4343"/><path d="m270.449 325.71c-7.474-5.762-16.664-8.849-26.101-8.881l-.428-.001c-9.549-.033-18.844 3.094-26.413 8.916-9.277 7.137-20.896 11.381-33.507 11.381-24.88 0-45.901-16.521-52.693-39.191 42.172-35.438 75.293-52.94 94.656-61.189 11.985-5.106 25.553-5.007 37.496.196 33.722 14.692 65.174 38.926 93.583 59.775-6.393 23.294-27.719 40.409-53.043 40.409-12.629 0-24.265-4.257-33.55-11.415z" fill="#fdf385"/><path d="m137.774 214.882-12.969 5.118c-2.994 1.182-5.365 3.552-6.546 6.546l-5.118 12.969c-.645 1.635-2.959 1.635-3.605 0l-5.118-12.969c-1.182-2.994-3.552-5.365-6.546-6.546l-12.969-5.118c-1.635-.645-1.635-2.959 0-3.605l12.969-5.118c2.994-1.182 5.365-3.552 6.546-6.546l5.118-12.969c.645-1.635 2.959-1.635 3.605 0l5.118 12.969c1.182 2.994 3.552 5.365 6.546 6.546l12.969 5.118c1.635.645 1.635 2.959 0 3.605zm220.094 82.441c-6.393 23.294-27.719 39.802-53.043 39.802-12.538 0-24.097-4.196-33.348-11.26-7.572-5.781-16.778-9.008-26.305-9.037l-.428-.001c-9.65-.034-18.965 3.25-26.645 9.094-9.239 7.03-20.769 11.204-33.275 11.204-5.177 0-10.186-.716-14.935-2.053 33.148-35.385 72.155-64.753 116.142-86.821 25.398 14.226 49.754 32.865 71.837 49.072z" fill="#fdf7bd"/><path d="m392.097 95.058-17.523 6.916c-4.046 1.597-7.249 4.799-8.845 8.845l-6.916 17.523c-.872 2.209-3.999 2.209-4.871 0l-6.916-17.523c-1.597-4.046-4.799-7.249-8.845-8.845l-17.523-6.916c-2.209-.872-2.209-3.999 0-4.871l17.523-6.916c4.046-1.597 7.249-4.799 8.845-8.845l6.916-17.523c.872-2.209 3.999-2.209 4.871 0l6.916 17.523c1.597 4.046 4.799 7.249 8.845 8.845l17.523 6.916c2.21.872 2.21 3.999 0 4.871z" fill="#fff5f5"/></svg>