<svg id="Layer_1" enable-background="new 0 0 512 512" height="512" viewBox="0 0 512 512" width="512" xmlns="http://www.w3.org/2000/svg"><circle cx="207.8" cy="256" fill="#ff3053" r="207.8"/><path d="m415.6 256c0-114.765-93.035-207.8-207.8-207.8v415.6c114.764 0 207.8-93.035 207.8-207.8z" fill="#dc145a"/><circle cx="207.8" cy="256" fill="#faf0fa" r="143.533"/><path d="m351.333 256c0-79.271-64.262-143.533-143.533-143.533v287.066c79.271 0 143.533-64.262 143.533-143.533z" fill="#e1e6f5"/><circle cx="207.8" cy="256" fill="#ff3053" r="79.267"/><path d="m287.066 256c0-43.778-35.489-79.267-79.267-79.267v158.533c43.779.001 79.267-35.488 79.267-79.266z" fill="#dc145a"/><path d="m368.467 271h-160.667c-8.284 0-15-6.716-15-15s6.716-15 15-15h160.667c8.284 0 15 6.716 15 15s-6.716 15-15 15z" fill="#004173"/><path d="m497 335.267h-80.333c-4.721 0-9.167-2.223-12-6l-48.2-64.267c-4-5.333-4-12.667 0-18l48.2-64.267c2.833-3.777 7.279-6 12-6h80.333c5.682 0 10.875 3.21 13.417 8.292 2.541 5.082 1.992 11.163-1.417 15.708l-41.45 55.267 41.45 55.267c3.409 4.545 3.958 10.626 1.417 15.708-2.542 5.082-7.735 8.292-13.417 8.292z" fill="#ffff6e"/><path d="m404.667 329.267c2.833 3.777 7.279 6 12 6h80.333c5.682 0 10.875-3.21 13.417-8.292 2.541-5.082 1.992-11.163-1.417-15.708l-41.45-55.267h-114.083c0 3.167 1 6.333 3 9z" fill="#ffe600"/></svg>