<svg id="Layer_1" enable-background="new 0 0 512.361 512.361" height="512" viewBox="0 0 512.361 512.361" width="512" xmlns="http://www.w3.org/2000/svg"><g><circle cx="249.886" cy="72.467" r="36.623"/><path d="m363.561 33.324c1.627-.647 3.276-1.143 4.933-1.506l-.001-.443c-.019-9.747-7.927-17.636-17.669-17.636-.012 0-.024 0-.036 0-9.759.02-17.655 7.947-17.635 17.706l.122 61.639-49.303 27.679c-30.315 0-14.174 0-67.695 0l-49.303-27.679.122-61.639c.02-9.759-7.876-17.686-17.635-17.706-.013 0-.023 0-.036 0-8.523 0-15.642 6.038-17.303 14.076.742.125 1.485.267 2.228.447 16.956 4.105 27.374 21.179 23.268 38.135l-13.207 54.55 58.472 32.827v135.936l-10.453 168.579c-.724 11.688 8.164 21.752 19.852 22.476.447.028.89.041 1.332.041 11.111 0 20.447-8.652 21.145-19.893 2.993-48.448 10.524-169.122 10.525-170.806h9.206c.001 1.683 7.532 122.357 10.525 170.806.698 11.242 10.032 19.893 21.145 19.893.441 0 .886-.014 1.332-.041 11.688-.724 20.576-10.788 19.852-22.476l-10.481-169.021-.166-135.14c.787-.406 65.992-37.495 65.992-37.495l-16.811-42.283c-6.445-16.213 1.472-34.58 17.683-41.026z"/><path d="m82.728 107.232c-4.42-15.405-18.602-26.683-35.428-26.683-20.359 0-36.863 16.504-36.863 36.863s16.504 36.863 36.863 36.863c3.405 0 6.699-.471 9.829-1.336l21.804-30.034z"/><path d="m131.239 41.109c-9.861-2.388-19.79 3.671-22.178 13.532l-16.805 69.407-48.9 41.705h-18.454c-13.753 0-24.902 11.149-24.902 24.903 0 0 .009 241.015.009 286.622 0 11.788 9.556 21.344 21.344 21.344s21.344-9.556 21.344-21.344c0-45.626 0-110.773 0-158.852 0-.001 0-.003 0-.004h6.91c4.175 12.199 17.208 50.277 23.554 68.817l7.607 91.801c.968 11.675 11.206 20.482 23.034 19.509 11.748-.974 20.482-11.286 19.509-23.034l-7.826-94.442c-.146-1.754-.508-3.484-1.077-5.149-4.767-13.927-15.433-45.09-20.194-59.002v-126.266c0-4.717-1.312-9.127-3.59-12.887l-11.682 5.926 41.691-35.557c2.945-2.513 5.023-5.892 5.934-9.655l18.206-75.196c2.385-9.861-3.673-19.79-13.534-22.178z"/><path d="m512.361 190.656c0-13.753-11.149-24.902-24.902-24.902h-18.453l-49.966-42.614-26.736-67.248c-3.748-9.428-14.432-14.032-23.858-10.284-9.428 3.748-14.032 14.43-10.284 23.858l28.419 71.482c1.105 2.781 2.873 5.249 5.149 7.191l41.691 35.557-11.682-5.926c-2.278 3.76-3.59 8.17-3.59 12.887v124.621l-20.038 54.635c-1.377 3.752-1.671 7.815-.852 11.727l20.957 100.013c2.424 11.571 13.76 18.923 25.267 16.513 11.538-2.417 18.93-13.73 16.513-25.267l-19.703-94.027 22.171-60.448h7.207c0 .033-.005.065-.005.098v158.759c0 11.788 9.556 21.344 21.344 21.344s21.344-9.556 21.344-21.344z"/><path d="m501.924 117.412c0-20.359-16.504-36.863-36.863-36.863-18.37 0-33.597 13.439-36.397 31.02l4.196 10.554 22.373 30.817c3.131.864 6.424 1.336 9.829 1.336 20.358 0 36.862-16.505 36.862-36.864z"/></g></svg>